# xmcd
# 
# Track frame offsets:
#     150
#     19557
#     38442
# 
# Disc length: 761
# 
# Revision: 3
# Processed by: cddbd v1.5.2PL0 Copyright (c) Steve Scherf et al.
# Submitted via: BonkEnc v1.0.8
# 
DISCID=1202f703
DTITLE=ELLEGARDEN - 指輪
DYEAR=2002
DGENRE=Alternative and Punk
TTITLE0=指輪
TTITLE1=45
TTITLE2=Don't Trust Anyone But Us
EXTD=YEAR: 2002
EXTT0=
EXTT1=
EXTT2=
PLAYORDER=
